<svg width="32" height="22" viewBox="0 0 32 22" fill="none" xmlns="http://www.w3.org/2000/svg">
<path d="M30.7733 15L29.3333 6.87999C29.2533 6.14666 28.68 5.54666 27.5867 4.93332C27.3743 4.60876 27.0937 4.33444 26.7643 4.12949C26.435 3.92454 26.065 3.79389 25.68 3.74666C25.3237 3.1564 24.7574 2.7226 24.0948 2.53221C23.4321 2.34181 22.722 2.40889 22.1067 2.71999C21.8264 2.34429 21.452 2.04911 21.0213 1.86418C20.5906 1.67926 20.1188 1.61113 19.6533 1.66666C19.413 1.24672 19.0628 0.900094 18.6405 0.66393C18.2182 0.427765 17.7396 0.310961 17.2559 0.326032C16.7723 0.341102 16.3019 0.487481 15.8951 0.749482C15.4883 1.01148 15.1604 1.37923 14.9467 1.81332C14.7402 1.73826 14.5252 1.689 14.3067 1.66666C14.0732 1.25942 13.7363 0.921048 13.3301 0.68573C12.9239 0.450411 12.4628 0.326491 11.9933 0.326491C11.5239 0.326491 11.0628 0.450411 10.6566 0.68573C10.2504 0.921048 9.91352 1.25942 9.68 1.66666C9.27333 1.61249 8.85964 1.65289 8.47112 1.7847C8.08261 1.91652 7.72975 2.1362 7.44 2.42666C7.18853 2.35608 6.92771 2.3246 6.66667 2.33332C5.95942 2.33332 5.28115 2.61428 4.78105 3.11437C4.28095 3.61447 4 4.29275 4 4.99999C4 4.99999 4 5.07999 4 5.13332C3.65892 5.29251 3.36033 5.5301 3.1286 5.82671C2.89688 6.12332 2.73859 6.47053 2.66667 6.83999L1.22667 15C0.869792 15.2025 0.570084 15.4921 0.355561 15.8419C0.141038 16.1917 0.0187059 16.5901 0 17C0.0142708 17.3138 0.0968231 17.6207 0.241901 17.8994C0.386978 18.178 0.591089 18.4217 0.84 18.6133C0.894413 18.6839 0.962419 18.7428 1.04 18.7867C3.46667 20.68 9.76 21.6667 16 21.6667C22.24 21.6667 28.5333 20.68 30.96 18.7733C31.0376 18.7295 31.1056 18.6706 31.16 18.6C31.4072 18.4098 31.6104 18.1683 31.7554 17.8921C31.9004 17.6159 31.9838 17.3115 32 17C31.9813 16.5901 31.859 16.1917 31.6444 15.8419C31.4299 15.4921 31.1302 15.2025 30.7733 15ZM5.04 6.07999C5.16603 6.00356 5.26318 5.88752 5.31625 5.75001C5.36933 5.6125 5.37533 5.46128 5.33333 5.31999C5.32049 5.21371 5.32049 5.10627 5.33333 4.99999C5.33373 4.76744 5.39495 4.53903 5.51091 4.33745C5.62687 4.13587 5.79353 3.96812 5.99436 3.85086C6.19518 3.7336 6.42319 3.67091 6.65573 3.669C6.88828 3.66709 7.11728 3.72604 7.32 3.83999C7.46944 3.92451 7.64573 3.94811 7.81214 3.90589C7.97856 3.86367 8.12226 3.75887 8.21333 3.61332C8.38024 3.35302 8.63242 3.15881 8.92673 3.06396C9.22104 2.9691 9.53917 2.97948 9.82667 3.09333C9.9107 3.12012 9.99921 3.12998 10.0871 3.12232C10.1749 3.11466 10.2604 3.08965 10.3385 3.04872C10.4167 3.0078 10.4859 2.95178 10.5422 2.88391C10.5986 2.81603 10.6408 2.73766 10.6667 2.65332C10.744 2.38291 10.9049 2.14388 11.1264 1.97044C11.3478 1.79699 11.6184 1.69801 11.8995 1.68766C12.1806 1.6773 12.4577 1.7561 12.6913 1.91278C12.9249 2.06946 13.1029 2.296 13.2 2.55999C13.2636 2.69309 13.3639 2.80523 13.4891 2.88319C13.6143 2.96115 13.7592 3.00168 13.9067 2.99999C14.2527 2.99431 14.5874 3.12341 14.84 3.35999C14.9308 3.45989 15.0498 3.52987 15.1812 3.56068C15.3126 3.59149 15.4503 3.58168 15.576 3.53254C15.7017 3.48341 15.8096 3.39726 15.8853 3.28551C15.961 3.17375 16.001 3.04164 16 2.90666C15.9664 2.55304 16.0747 2.20055 16.301 1.92675C16.5273 1.65295 16.853 1.48025 17.2067 1.44666C17.5603 1.41306 17.9128 1.52132 18.1866 1.74762C18.4604 1.97391 18.6331 2.2997 18.6667 2.65332C18.6917 2.74397 18.7357 2.82829 18.7957 2.90074C18.8556 2.97319 18.9303 3.03213 19.0146 3.07369C19.099 3.11524 19.1912 3.13848 19.2852 3.14186C19.3792 3.14525 19.4729 3.12871 19.56 3.09333C19.7245 3.02909 19.9001 2.99816 20.0766 3.00233C20.2531 3.00651 20.4271 3.04571 20.5883 3.11765C20.7496 3.1896 20.8949 3.29285 21.016 3.42143C21.137 3.55001 21.2313 3.70135 21.2933 3.86666C21.3319 3.97503 21.3978 4.07159 21.4847 4.14695C21.5716 4.22231 21.6765 4.27391 21.7892 4.29673C21.902 4.31954 22.0187 4.3128 22.1281 4.27716C22.2374 4.24152 22.3357 4.17819 22.4133 4.09333C22.5699 3.92709 22.7665 3.80384 22.9844 3.7354C23.2022 3.66696 23.434 3.65562 23.6575 3.70246C23.881 3.7493 24.0887 3.85275 24.2607 4.00291C24.4328 4.15306 24.5634 4.34488 24.64 4.55999C24.7026 4.69103 24.8008 4.8018 24.9234 4.87962C25.0461 4.95743 25.1881 4.99915 25.3333 4.99999C25.5791 4.99575 25.8212 5.0595 26.0329 5.18421C26.2447 5.30891 26.4179 5.48972 26.5333 5.70666C26.6031 5.83026 26.7106 5.92835 26.84 5.98666C27.72 6.41332 28.04 6.78666 28.04 6.99999C28.04 7.90666 23.8 9.66666 16.04 9.66666C8.28 9.66666 4 7.90666 4 6.99999C4 6.81332 4.26667 6.46666 5.04 6.07999Z" fill="#585CC6"/>
</svg>
