<svg width="24" height="24" viewBox="0 0 24 24" fill="none" xmlns="http://www.w3.org/2000/svg">
<path d="M8.10639 21C16.029 21 20.3635 14.0741 20.3635 8.0699C20.3635 7.8752 20.3594 7.67616 20.3512 7.48146C21.1944 6.83819 21.9221 6.04141 22.5 5.12857C21.7147 5.49714 20.8809 5.73785 20.0272 5.84248C20.9261 5.27405 21.5992 4.38106 21.9217 3.32906C21.076 3.85777 20.1511 4.23073 19.1868 4.43196C18.537 3.70363 17.6779 3.22139 16.7422 3.0598C15.8066 2.89821 14.8465 3.06626 14.0105 3.53798C13.1745 4.00969 12.5091 4.7588 12.1171 5.66948C11.7252 6.58016 11.6285 7.60169 11.8421 8.57613C10.1297 8.48548 8.45444 8.01622 6.92498 7.19877C5.39552 6.38131 4.04598 5.23392 2.96385 3.83097C2.41385 4.83129 2.24555 6.01501 2.49315 7.14153C2.74075 8.26805 3.38568 9.25286 4.29686 9.89579C3.6128 9.87288 2.94373 9.6786 2.34492 9.32899V9.38523C2.34431 10.435 2.68834 11.4526 3.31852 12.265C3.94871 13.0775 4.82616 13.6346 5.80172 13.8418C5.16805 14.0247 4.50298 14.0513 3.85799 13.9197C4.13327 14.8225 4.66888 15.6121 5.39005 16.1783C6.11122 16.7446 6.98198 17.0592 7.8808 17.0782C6.35487 18.3427 4.4699 19.0285 2.52949 19.0253C2.18538 19.0247 1.8416 19.0025 1.5 18.9586C3.47125 20.2927 5.76434 21.0013 8.10639 21Z" fill="#585CC6"/>
</svg>
